<svg width="24" height="24" viewBox="0 0 24 24" fill="none" xmlns="http://www.w3.org/2000/svg">
<rect width="24" height="24" fill="#1E1E1E"/>
<g id="Home | Ballecoffee" clip-path="url(#clip0_1_5)">
<rect width="1440" height="1400" transform="translate(-176 -439)" fill="#1F1517"/>
<g id="Hero Banner" clip-path="url(#clip1_1_5)">
<rect width="1440" height="453" transform="translate(-176 -371)" fill="#181012"/>
<g id="Hero Text">
<g id="Frame 1">
<path id="Hat" d="M-13.578 15H-15.055V4.675H-12.633L-8.559 14.279L-8.741 14.349V4.675H-7.257V15H-9.714L-13.774 5.41L-13.578 5.347V15ZM-1.34364 15.147C-1.95964 15.147 -2.52897 15.0303 -3.05164 14.797C-3.56964 14.559 -4.02464 14.2137 -4.41664 13.761C-4.80397 13.3037 -5.10497 12.746 -5.31964 12.088C-5.53431 11.4253 -5.64164 10.6717 -5.64164 9.827C-5.64164 8.97767 -5.53431 8.22633 -5.31964 7.573C-5.10497 6.915 -4.80397 6.362 -4.41664 5.914C-4.02464 5.46133 -3.56731 5.12067 -3.04464 4.892C-2.52197 4.65867 -1.95497 4.542 -1.34364 4.542C-0.72764 4.542 -0.158307 4.65867 0.36436 4.892C0.891693 5.12067 1.34903 5.46133 1.73636 5.914C2.12369 6.362 2.42469 6.915 2.63936 7.573C2.85403 8.22633 2.96136 8.97767 2.96136 9.827C2.96136 10.6717 2.85403 11.4253 2.63936 12.088C2.42469 12.746 2.12136 13.3037 1.72936 13.761C1.34203 14.2137 0.887026 14.559 0.36436 14.797C-0.158307 15.0303 -0.72764 15.147 -1.34364 15.147ZM-1.34364 13.852C-0.816307 13.852 -0.344974 13.7073 0.0703599 13.418C0.49036 13.1287 0.81936 12.6877 1.05736 12.095C1.29536 11.4977 1.41436 10.7417 1.41436 9.827C1.41436 8.90767 1.29303 8.154 1.05036 7.566C0.812359 6.978 0.485693 6.544 0.0703599 6.264C-0.344974 5.984 -0.816307 5.844 -1.34364 5.844C-1.86164 5.844 -2.33064 5.984 -2.75064 6.264C-3.16597 6.544 -3.49497 6.978 -3.73764 7.566C-3.98031 8.154 -4.10164 8.90767 -4.10164 9.827C-4.10164 10.7463 -3.98031 11.5047 -3.73764 12.102C-3.49497 12.6947 -3.16597 13.1357 -2.75064 13.425C-2.33064 13.7097 -1.86164 13.852 -1.34364 13.852ZM6.35363 15.042L3.63063 4.675H5.30363L7.51562 13.971H7.43163L9.61563 4.675H11.2956L8.60063 15.042H6.35363ZM12.6585 15V4.675H14.1565V15H12.6585ZM16.0759 15V4.675H18.9109C19.5969 4.675 20.2175 4.79633 20.7729 5.039C21.3282 5.28167 21.8019 5.627 22.1939 6.075C22.5905 6.523 22.8962 7.06433 23.1109 7.699C23.3255 8.33367 23.4329 9.043 23.4329 9.827C23.4329 10.6157 23.3255 11.3273 23.1109 11.962C22.8962 12.5967 22.5905 13.1403 22.1939 13.593C21.8019 14.0457 21.3282 14.3933 20.7729 14.636C20.2175 14.8787 19.5969 15 18.9109 15H16.0759ZM17.6019 14.538L16.9159 13.74H18.7289C19.3355 13.74 19.8769 13.5813 20.3529 13.264C20.8335 12.9467 21.2092 12.4963 21.4799 11.913C21.7505 11.325 21.8859 10.6297 21.8859 9.827C21.8859 9.01967 21.7505 8.32667 21.4799 7.748C21.2092 7.16467 20.8335 6.71667 20.3529 6.404C19.8769 6.09133 19.3355 5.935 18.7289 5.935H16.9159L17.6019 5.137V14.538ZM24.1384 15L26.8964 4.654H29.2834L32.0134 15H30.4524L28.0794 5.613H28.0934L25.7064 15H24.1384ZM25.7344 12.375V11.115H30.4384V12.375H25.7344ZM33.3708 15V4.675H36.2058C36.8918 4.675 37.5124 4.79633 38.0678 5.039C38.6231 5.28167 39.0968 5.627 39.4888 6.075C39.8854 6.523 40.1911 7.06433 40.4058 7.699C40.6204 8.33367 40.7278 9.043 40.7278 9.827C40.7278 10.6157 40.6204 11.3273 40.4058 11.962C40.1911 12.5967 39.8854 13.1403 39.4888 13.593C39.0968 14.0457 38.6231 14.3933 38.0678 14.636C37.5124 14.8787 36.8918 15 36.2058 15H33.3708ZM34.8968 14.538L34.2108 13.74H36.0238C36.6304 13.74 37.1718 13.5813 37.6478 13.264C38.1284 12.9467 38.5041 12.4963 38.7748 11.913C39.0454 11.325 39.1808 10.6297 39.1808 9.827C39.1808 9.01967 39.0454 8.32667 38.7748 7.748C38.5041 7.16467 38.1284 6.71667 37.6478 6.404C37.1718 6.09133 36.6304 5.935 36.0238 5.935H34.2108L34.8968 5.137V14.538ZM43.1795 5.935L43.8655 5.137V9.673L43.5015 9.19H47.4145V10.45H43.5015L43.8655 9.967V14.538L43.1795 13.74H48.1915V15H42.3395V4.675H48.1915V5.935H43.1795Z" fill="#A45A49"/>
</g>
</g>
</g>
<g id="Button">
<rect x="-16" y="-16" width="56" height="56" rx="8" fill="#A45A49"/>
<g id="chevrons-down">
<path id="Vector" d="M7 13L12 18L17 13" stroke="white" stroke-width="2" stroke-linecap="round" stroke-linejoin="round"/>
<path id="Vector_2" d="M7 6L12 11L17 6" stroke="white" stroke-width="2" stroke-linecap="round" stroke-linejoin="round"/>
</g>
</g>
</g>
<defs>
<clipPath id="clip0_1_5">
<rect width="1440" height="1400" fill="white" transform="translate(-176 -439)"/>
</clipPath>
<clipPath id="clip1_1_5">
<rect width="1440" height="453" fill="white" transform="translate(-176 -371)"/>
</clipPath>
</defs>
</svg>
